# 3ds Max Wavefront OBJ Exporter v0.97b - (c)2007 guruware
# File Created: 14.06.2016 16:47:28

mtllib TreePine.mtl

#
# object TreePine
#

v  0.0000 1.9714 -0.0000
v  0.1250 -0.0286 -0.0000
v  0.0884 -0.0286 -0.0884
v  -0.0884 -0.0286 -0.0884
v  -0.1250 -0.0286 -0.0000
v  0.0884 -0.0286 0.0884
v  -0.0884 -0.0286 0.0884
v  0.0000 -0.0286 -0.1250
v  0.0000 -0.0286 0.1250
v  -0.0424 0.8747 -0.0066
v  0.2261 0.3127 -0.6548
v  -0.3110 0.3739 -0.7206
v  -0.6893 0.4558 -0.2367
v  -0.6935 0.2379 0.2748
v  -0.3136 0.3734 0.5685
v  0.2261 0.3127 0.6416
v  0.5138 0.2411 0.2528
v  0.6071 0.4558 -0.2367
v  -0.0524 1.1623 -0.0191
v  -0.1681 0.6580 -0.6461
v  -0.6062 0.7060 -0.4264
v  -0.6500 0.7747 0.1279
v  -0.3948 0.5775 0.5136
v  0.0367 0.7051 0.5459
v  0.4805 0.6577 0.3305
v  0.5034 0.5970 -0.1068
v  0.3264 0.7924 -0.5206
v  -0.0167 1.4503 0.0075
v  0.5400 1.0347 -0.0405
v  0.4085 1.1005 -0.4359
v  -0.0570 1.1550 -0.5398
v  -0.4117 0.9656 -0.3854
v  -0.4966 1.0470 -0.0172
v  -0.3693 0.9812 0.3824
v  -0.0005 0.9334 0.4541
v  0.3681 1.1168 0.3694
v  -0.0358 1.6432 -0.0145
v  0.3925 1.2785 0.1952
v  0.4716 1.3364 -0.1550
v  0.1743 1.3886 -0.4381
v  -0.1582 1.2296 -0.4825
v  -0.3835 1.3011 -0.2478
v  -0.4677 1.2434 0.1037
v  -0.2275 1.1981 0.3202
v  0.0843 1.3518 0.4221
v  -0.0313 1.8371 -0.0048
v  0.1800 1.5439 0.3027
v  0.3703 1.5894 0.0921
v  0.2752 1.6344 -0.2176
v  0.0616 1.5124 -0.3778
v  -0.1838 1.5709 -0.3024
v  -0.3781 1.5255 -0.0929
v  -0.2965 1.4867 0.1488
v  -0.1195 1.6046 0.3407
v  -0.0219 1.9938 0.0339
v  -0.0344 1.7771 0.3037
v  0.1690 1.8032 0.2593
v  0.2446 1.8356 0.0352
v  0.1820 1.7509 -0.1513
v  0.0059 1.8010 -0.2098
v  -0.1994 1.7751 -0.1677
v  -0.2542 1.7469 0.0103
v  -0.2268 1.8299 0.2002
# 63 vertices

vn -0.0000 1.0000 -0.0000
vn 0.9981 0.0624 0.0000
vn 0.7057 0.0624 -0.7057
vn -0.7057 0.0624 -0.7057
vn -0.9981 0.0624 -0.0000
vn 0.7057 0.0624 0.7057
vn -0.7057 0.0624 0.7057
vn 0.0000 0.0624 -0.9981
vn -0.0000 0.0624 0.9981
vn 0.0253 0.9980 0.0583
vn 0.2297 0.7805 -0.5815
vn -0.0868 0.8306 -0.5500
vn -0.5316 0.8458 -0.0451
vn -0.5750 0.7411 0.3466
vn -0.3119 0.7842 0.5365
vn 0.3607 0.7735 0.5212
vn 0.6151 0.6935 0.3751
vn 0.5215 0.8499 -0.0754
vn 0.0409 0.9982 0.0431
vn -0.1401 0.7840 -0.6048
vn -0.3870 0.8294 -0.4030
vn -0.4783 0.8377 0.2637
vn -0.2964 0.7322 0.6132
vn 0.0272 0.7792 0.6262
vn 0.5791 0.7787 0.2413
vn 0.7112 0.7026 -0.0218
vn 0.3821 0.8577 -0.3440
vn -0.0742 0.9918 0.1043
vn 0.5986 0.8010 0.0075
vn 0.4345 0.8615 -0.2629
vn -0.2114 0.8666 -0.4521
vn -0.5811 0.7429 -0.3324
vn -0.6430 0.7658 -0.0118
vn -0.3441 0.7304 0.5900
vn -0.1016 0.6487 0.7543
vn 0.2616 0.8323 0.4887
vn -0.1052 0.9928 0.0569
vn 0.5189 0.7929 0.3194
vn 0.5183 0.8552 0.0034
vn 0.0622 0.8687 -0.4913
vn -0.3178 0.7502 -0.5799
vn -0.5357 0.7743 -0.3369
vn -0.5900 0.7357 0.3327
vn -0.4677 0.6509 0.5979
vn -0.0174 0.8293 0.5585
vn -0.1091 0.9940 0.0070
vn 0.3050 0.7850 0.5392
vn 0.4595 0.8481 0.2638
vn 0.3036 0.8691 -0.3906
vn 0.0141 0.7559 -0.6545
vn -0.2945 0.7823 -0.5488
vn -0.6695 0.7427 0.0085
vn -0.6933 0.6557 0.2989
vn -0.2794 0.8281 0.4861
vn -0.0553 0.9974 -0.0466
vn -0.0342 0.7801 0.6247
vn 0.2536 0.8338 0.4904
vn 0.5064 0.8520 -0.1330
vn 0.4192 0.7462 -0.5171
vn 0.1077 0.7855 -0.6094
vn -0.5220 0.7672 -0.3728
vn -0.7129 0.6849 -0.1508
vn -0.4776 0.8442 0.2434
# 63 vertex normals

vt 0.4983 0.7586 0.0000
vt 0.5759 0.0831 0.0000
vt 0.6098 0.0854 0.0000
vt 0.6768 0.0987 0.0000
vt 0.7096 0.1077 0.0000
vt 0.8048 0.1442 0.0000
vt 0.8350 0.1593 0.0000
vt 0.7420 0.1183 0.0000
vt 0.6435 0.0912 0.0000
vt 0.7737 0.1305 0.0000
vt 0.1246 0.8813 0.0000
vt 0.0391 0.7976 0.0000
vt 0.1256 0.7632 0.0000
vt 0.2214 0.8062 0.0000
vt 0.2486 0.8936 0.0000
vt 0.2097 0.9670 0.0000
vt 0.1212 0.9980 0.0000
vt 0.0430 0.9673 0.0000
vt 0.0032 0.8866 0.0000
vt 0.2353 0.2465 0.0000
vt 0.4956 0.2552 0.0000
vt 0.4229 0.4249 0.0000
vt 0.2076 0.4672 0.0000
vt 0.0215 0.4113 0.0000
vt 0.0019 0.2453 0.0000
vt 0.0574 0.0670 0.0000
vt 0.2178 0.0047 0.0000
vt 0.3928 0.0832 0.0000
vt 0.3020 0.6371 0.0000
vt 0.0790 0.6297 0.0000
vt 0.1412 0.4843 0.0000
vt 0.3256 0.4481 0.0000
vt 0.4850 0.4960 0.0000
vt 0.5018 0.6382 0.0000
vt 0.4543 0.7910 0.0000
vt 0.3169 0.8443 0.0000
vt 0.1670 0.7770 0.0000
vt 0.7332 0.6928 0.0000
vt 0.7397 0.5093 0.0000
vt 0.8711 0.5606 0.0000
vt 0.9039 0.7123 0.0000
vt 0.8607 0.8435 0.0000
vt 0.7323 0.8572 0.0000
vt 0.5943 0.8181 0.0000
vt 0.5460 0.7050 0.0000
vt 0.6067 0.5817 0.0000
vt 0.8570 0.4024 0.0000
vt 0.8622 0.2574 0.0000
vt 0.9660 0.2980 0.0000
vt 0.9920 0.4179 0.0000
vt 0.9578 0.5215 0.0000
vt 0.8563 0.5324 0.0000
vt 0.7472 0.5015 0.0000
vt 0.7090 0.4121 0.0000
vt 0.7570 0.3146 0.0000
vt 0.5025 0.8745 0.0000
vt 0.5782 0.9519 0.0000
vt 0.5027 0.9821 0.0000
vt 0.4245 0.9330 0.0000
vt 0.3860 0.8627 0.0000
vt 0.4325 0.8071 0.0000
vt 0.5055 0.7693 0.0000
vt 0.5735 0.7966 0.0000
vt 0.6015 0.8706 0.0000
# 64 texture coords

g TreePine
usemtl defaultMat
s 1
f 1/1/1 2/2/2 3/3/3 
f 1/1/1 4/4/4 5/5/5 
f 1/1/1 6/6/6 2/7/2 
f 1/1/1 5/5/5 7/8/7 
f 1/1/1 8/9/8 4/4/4 
f 1/1/1 9/10/9 6/6/6 
f 1/1/1 3/3/3 8/9/8 
f 1/1/1 7/8/7 9/10/9 
f 10/11/10 11/12/11 12/13/12 
f 10/11/10 12/13/12 13/14/13 
f 10/11/10 13/14/13 14/15/14 
f 10/11/10 14/15/14 15/16/15 
f 10/11/10 15/16/15 16/17/16 
f 10/11/10 16/17/16 17/18/17 
f 10/11/10 17/18/17 18/19/18 
f 10/11/10 18/19/18 11/12/11 
f 19/20/19 20/21/20 21/22/21 
f 19/20/19 21/22/21 22/23/22 
f 19/20/19 22/23/22 23/24/23 
f 19/20/19 23/24/23 24/25/24 
f 19/20/19 24/25/24 25/26/25 
f 19/20/19 25/26/25 26/27/26 
f 19/20/19 26/27/26 27/28/27 
f 19/20/19 27/28/27 20/21/20 
f 28/29/28 29/30/29 30/31/30 
f 28/29/28 30/31/30 31/32/31 
f 28/29/28 31/32/31 32/33/32 
f 28/29/28 32/33/32 33/34/33 
f 28/29/28 33/34/33 34/35/34 
f 28/29/28 34/35/34 35/36/35 
f 28/29/28 35/36/35 36/37/36 
f 28/29/28 36/37/36 29/30/29 
f 37/38/37 38/39/38 39/40/39 
f 37/38/37 39/40/39 40/41/40 
f 37/38/37 40/41/40 41/42/41 
f 37/38/37 41/42/41 42/43/42 
f 37/38/37 42/43/42 43/44/43 
f 37/38/37 43/44/43 44/45/44 
f 37/38/37 44/45/44 45/46/45 
f 37/38/37 45/46/45 38/39/38 
f 46/47/46 47/48/47 48/49/48 
f 46/47/46 48/49/48 49/50/49 
f 46/47/46 49/50/49 50/51/50 
f 46/47/46 50/51/50 51/52/51 
f 46/47/46 51/52/51 52/53/52 
f 46/47/46 52/53/52 53/54/53 
f 46/47/46 53/54/53 54/55/54 
f 46/47/46 54/55/54 47/48/47 
f 55/56/55 56/57/56 57/58/57 
f 55/56/55 57/58/57 58/59/58 
f 55/56/55 58/59/58 59/60/59 
f 55/56/55 59/60/59 60/61/60 
f 55/56/55 60/61/60 61/62/61 
f 55/56/55 61/62/61 62/63/62 
f 55/56/55 62/63/62 63/64/63 
f 55/56/55 63/64/63 56/57/56 
# 0 polygons - 56 triangles

